<?xml version="1.0" standalone="no"?>
<!DOCTYPE svg PUBLIC "-//W3C//DTD SVG 20010904//EN"
 "http://www.w3.org/TR/2001/REC-SVG-20010904/DTD/svg10.dtd">
<svg version="1.0" xmlns="http://www.w3.org/2000/svg"
 width="512.000000pt" height="512.000000pt" viewBox="0 0 512.000000 512.000000"
 preserveAspectRatio="xMidYMid meet">
<metadata>
Created by potrace 1.14, written by Peter Selinger 2001-2017
</metadata>
<g transform="translate(0.000000,512.000000) scale(0.100000,-0.100000)"
fill="#000000" stroke="none">
<path d="M2270 4874 c-446 -63 -836 -231 -1185 -511 -370 -297 -660 -749 -780
-1218 -59 -232 -70 -323 -70 -590 0 -258 14 -372 70 -586 29 -107 96 -299 106
-299 3 0 48 26 100 57 256 155 664 294 1081 368 155 27 466 65 537 65 l45 0
-83 40 c-114 55 -162 89 -270 194 -143 140 -218 257 -274 431 -40 124 -50 189
-50 335 0 146 10 211 50 335 56 174 131 291 274 431 136 131 237 193 404 247
124 40 189 50 335 50 146 0 211 -10 335 -50 167 -54 268 -116 404 -247 143
-140 218 -257 274 -431 40 -124 50 -189 50 -335 0 -146 -10 -211 -50 -335 -56
-174 -131 -291 -274 -431 -108 -105 -156 -139 -270 -194 l-83 -40 45 0 c71 0
382 -38 537 -65 417 -74 825 -213 1081 -368 52 -31 97 -57 100 -57 10 0 77
192 106 299 56 214 70 328 70 586 0 267 -11 358 -70 590 -120 469 -410 921
-780 1218 -325 261 -685 424 -1100 498 -159 28 -509 35 -665 13z"/>
</g>
</svg>
