<?xml version="1.0" standalone="no"?>
<!DOCTYPE svg PUBLIC "-//W3C//DTD SVG 20010904//EN"
 "http://www.w3.org/TR/2001/REC-SVG-20010904/DTD/svg10.dtd">
<svg version="1.0" xmlns="http://www.w3.org/2000/svg"
 width="512.000000pt" height="512.000000pt" viewBox="0 0 512.000000 512.000000"
 preserveAspectRatio="xMidYMid meet">
<metadata>
Created by potrace 1.14, written by Peter Selinger 2001-2017
</metadata>
<g transform="translate(0.000000,512.000000) scale(0.100000,-0.100000)"
fill="#000000" stroke="none">
<path d="M2240 4984 c-984 -138 -1776 -827 -2035 -1771 -69 -249 -80 -344 -80
-673 0 -309 5 -370 52 -595 41 -201 152 -508 188 -521 23 -9 27 0 13 30 -11
25 -9 29 18 52 207 173 591 340 988 429 538 120 1158 159 1676 106 572 -60
989 -163 1335 -331 112 -55 262 -147 329 -204 27 -23 29 -27 18 -52 -14 -30
-10 -39 13 -30 36 13 147 320 188 521 47 225 52 286 52 595 0 265 -2 308 -23
423 -47 261 -123 490 -237 712 -351 687 -991 1157 -1766 1296 -163 29 -566 36
-729 13z m565 -903 c97 -26 227 -87 310 -146 87 -62 212 -198 269 -293 65
-108 113 -251 128 -381 23 -200 -23 -417 -128 -594 -66 -110 -211 -257 -323
-325 -308 -188 -695 -188 -1002 0 -111 68 -249 206 -317 317 -227 371 -176
837 127 1154 147 154 311 244 514 283 103 20 319 12 422 -15z"/>
</g>
</svg>
